<?xml version="1.0" encoding="utf-8"?>
<!-- Generator: Adobe Illustrator 16.0.0, SVG Export Plug-In . SVG Version: 6.00 Build 0)  -->
<!DOCTYPE svg PUBLIC "-//W3C//DTD SVG 1.1//EN" "http://www.w3.org/Graphics/SVG/1.1/DTD/svg11.dtd">
<svg version="1.1" id="Ebene_1" xmlns="http://www.w3.org/2000/svg" xmlns:xlink="http://www.w3.org/1999/xlink" x="0px" y="0px"
	 width="79.983px" height="53px" viewBox="0 0 79.983 53" enable-background="new 0 0 79.983 53" xml:space="preserve">
<polygon points="79.983,26.622 75.001,21.64 74.968,21.673 53.294,0 48.313,4.947 66.212,22.812 0,22.812 0,29.812 66.715,29.812 
	48.313,48.271 53.294,53.281 74.968,31.623 75.001,31.664 79.983,26.685 79.95,26.653 "/>
<polygon fill="#FFFF00" points="79.983,79.622 75.001,74.64 74.968,74.673 53.294,53 48.313,57.947 66.212,75.812 0,75.812 
	0,82.812 66.715,82.812 48.313,101.271 53.294,106.281 74.968,84.623 75.001,84.664 79.983,79.685 79.95,79.653 "/>
</svg>
