<?xml version="1.0" encoding="utf-8"?>
<!-- Generator: Adobe Illustrator 16.0.0, SVG Export Plug-In . SVG Version: 6.00 Build 0)  -->
<!DOCTYPE svg PUBLIC "-//W3C//DTD SVG 1.1//EN" "http://www.w3.org/Graphics/SVG/1.1/DTD/svg11.dtd">
<svg version="1.1" id="Ebene_1" xmlns="http://www.w3.org/2000/svg" xmlns:xlink="http://www.w3.org/1999/xlink" x="0px" y="0px"
	 width="107.288px" height="151.632px" viewBox="0 0 107.288 151.632" enable-background="new 0 0 107.288 151.632"
	 xml:space="preserve">
<g>
	<g>
		<path d="M0.712,151.632v-14.725h92.899v-33.122h13.677v47.847H0.712z"/>
	</g>
	<g>
		<path d="M106.288,0v14.725H14.389v33.122H0.712V0H106.288z"/>
	</g>
	<g>
		<path stroke="#000000" stroke-width="5" stroke-miterlimit="10" d="M72.899,79.5c1.755,1.758,3.104,3.784,4.046,6.079
			c0.94,2.296,1.412,5.104,1.412,8.423c0,6.69-2.194,12.158-6.581,16.406c-4.389,4.248-10.072,6.372-17.049,6.372
			c-3.683,0-7.075-0.758-10.178-2.271c-3.104-1.513-5.32-2.904-6.646-4.175l-1.284,4.761h-4.816l-0.642-25.122h4.431
			c0.342,1.911,1.069,4.142,2.183,6.689c1.113,2.547,2.461,4.85,4.046,6.907c1.669,2.156,3.669,3.97,6.003,5.439
			c2.333,1.47,4.955,2.204,7.867,2.204c4.109,0,7.277-1.068,9.504-3.204c2.225-2.137,3.339-5.194,3.339-9.174
			c0-2.051-0.354-3.819-1.06-5.31c-0.706-1.489-1.745-2.795-3.114-3.919c-1.413-1.122-3.146-2.136-5.201-3.04
			c-2.055-0.902-4.346-1.794-6.872-2.673c-2.013-0.683-4.249-1.622-6.71-2.819c-2.462-1.196-4.57-2.601-6.325-4.212
			c-1.885-1.708-3.426-3.809-4.624-6.299c-1.199-2.49-1.797-5.42-1.797-8.789c0-5.907,1.926-10.913,5.779-15.015
			s9.011-6.152,15.476-6.152c2.482,0,5.019,0.366,7.609,1.099c2.589,0.732,4.697,1.611,6.325,2.637l1.477-3.809h4.624l0.963,23.218
			h-4.431c-0.899-5.197-2.837-9.425-5.812-12.687c-2.977-3.26-6.604-4.891-10.884-4.891c-3.511,0-6.272,1.008-8.284,3.025
			c-2.013,2.016-3.018,4.45-3.018,7.302c0,2.197,0.331,4.028,0.995,5.493c0.664,1.465,1.659,2.71,2.986,3.735
			c1.284,0.978,2.899,1.893,4.848,2.747c1.948,0.855,4.356,1.82,7.225,2.893c2.825,1.025,5.489,2.223,7.994,3.589
			C69.207,76.327,71.271,77.841,72.899,79.5z"/>
	</g>
</g>
</svg>
